<svg xmlns="http://www.w3.org/2000/svg" data-name="Слой 1" viewBox="0 0 100 125" x="0px" y="0px"><title>hinkalii</title><path d="M73.23977,82.54184a12.43845,12.43845,0,0,0-1.94674.44006c-1.51869.60067-3.00235,1.28953-4.50356,1.9349a15.23311,15.23311,0,0,1-2.16872.88052c-2.66433.68183-5.33737,1.47594-8.12786,1.124a10.61625,10.61625,0,0,0-5.15359.77254,19.15707,19.15707,0,0,1-6.12068,1.06281,3.08688,3.08688,0,0,0-.93452.06987,4.0385,4.0385,0,0,1-2.42039-.03438c-2.23912-.55268-4.5802-.65091-6.74908-1.51491-1.56318-.62273-3.15088-1.19152-4.68194-1.88522a47.19773,47.19773,0,0,1-4.529-2.49261,7.896,7.896,0,0,1-3.68331-4.4101,14.25552,14.25552,0,0,0-2.85859-4.67876c-1.38544-1.64933-2.94292-3.153-4.39342-4.74931a33.98685,33.98685,0,0,1-2.24927-2.71736,7.05047,7.05047,0,0,1-.63627-1.50335,20.03183,20.03183,0,0,1-1.59519-5.88821,18.35036,18.35036,0,0,1,.27947-4.33333,27.214,27.214,0,0,1,2.26828-7.29943,20.373,20.373,0,0,1,2.24585-3.15775,7.18888,7.18888,0,0,0,.886-1.24418,9.11243,9.11243,0,0,1,3.77807-3.93281,45.86661,45.86661,0,0,1,4.31686-2.40341c.97754-.484,2.0453-.78457,3.06866-1.17768,2.48894-.95609,4.99344-1.8749,7.45809-2.89021a12.247,12.247,0,0,0,5.6566-4.99262,39.48171,39.48171,0,0,0,3.81855-7.0276c.38887-1.0213.62918-2.09986.92162-3.15664a7.2339,7.2339,0,0,1,.13423-.81191c.939-2.27707.7161-2.44414,3.214-2.88115a7.00651,7.00651,0,0,0,3.11178-1.296,4.63484,4.63484,0,0,1,2.96109-.96686,7.25,7.25,0,0,0,1.7341-.27745,1.98356,1.98356,0,0,1,2.47941.97724c.38676.59131.77791,1.18127,1.13134,1.7925a4.65454,4.65454,0,0,1,.678,2.92615,4.95344,4.95344,0,0,0,.28733,1.81765,35.37322,35.37322,0,0,0,3.13079,7.34066A26.01136,26.01136,0,0,0,66.99912,30.333a11.61532,11.61532,0,0,0,2.863,2.04554,24.35575,24.35575,0,0,0,3.01969,1.59162,29.60527,29.60527,0,0,1,10.68124,7.77275,26.82686,26.82686,0,0,1,2.7993,4.20362,24.22007,24.22007,0,0,1,2.8179,7.57768c.19463.99315.16522,2.02807.306,3.03444a8.506,8.506,0,0,1-.8762,4.77245,5.43846,5.43846,0,0,0-.39632,1.476,45.726,45.726,0,0,1-3.57463,11.77837A10.09223,10.09223,0,0,1,81.50183,78.357c-.8211.66288-1.63042,1.34413-2.48707,1.9585A15.714,15.714,0,0,1,73.23977,82.54184ZM72.69971,34.9885l.61409.38106.06841-.15982-.6947-.201q-.53756-.24416-1.07518-.48827l-3.57668-2.3509-1.38683,4.11867-.28215-.07389c.17912-.73567.36947-1.46884.53425-2.20772.16813-.75391.31118-1.51344.42977-2.09632-.94758-1.11787-1.75328-2.06835-2.66835-3.14783l.96526,2.43016-.05993.07436c-.26734-.42251-.54515-.83886-.79943-1.26909-.32407-.54834-.679-.53572-1.15262-.10582.175.35211.33442.662.48392.97667.14114.2971.27187.59915.40721.899l-.1929.10822-1.234-1.82537-.12393.66842-1.41206-.892.38128-.43876c-.693-1.70028-.693-1.70028-1.471-1.42673.171.47615.33771.954.51412,1.42817.17817.47892.37607.95068.5464,1.43226.14906.4215.27182.85232.4062,1.279a2.37341,2.37341,0,0,1-.78214-1.19557,2.03745,2.03745,0,0,0-1.18416-1.33973,1.53778,1.53778,0,0,1-.80806-.76119c-.24443-.488-.50046-.9702-.75166-1.45483q-.38718-.747-.7747-1.49373l-.281.14276q1.68111,3.65687,3.36225,7.31374a.92417.92417,0,0,1-.54556-.41582c-1.02236-2.07808-2.04672-4.15566-3.02705-6.25369-.26987-.57759-.629-1.23881.23326-1.73279.146-.08365.13292-.43418.21243-.65453.01518-.04214.12009-.05187.21768-.08981l.4858.60882A1.8432,1.8432,0,0,0,59.756,23.8075c-.77459-.00039-1.388-.04582-1.99147.01183-.59238.05657-1.17473.21794-1.76147.33334l-.08163-.24516a2.204,2.204,0,0,1,.628-.39757c.45637-.10094.93314-.10612,1.39942-.16671.71534-.093,1.4756.12445,2.14122-.328a5.81213,5.81213,0,0,1,.69346-.35c.49081.91518.94078,1.75418,1.39071,2.59318l.05538-.04119-1.69245-4.3221c-.24652.565-.6959.6817-1.31115.71074-1.63419.07714-3.35787-.03851-4.72369,1.11011a3.41683,3.41683,0,0,1-2.87991.59579,9.8193,9.8193,0,0,1-1.25763-.31284A1.6004,1.6004,0,0,1,49.306,21.99c-.66066-1.46192-1.37363-2.9002-2.06578-4.34789-.22157-.4634-.44215-.92728-.76767-1.6101-.21778.72975-.3942,1.20565-.50006,1.69676A16.986,16.986,0,0,1,44.38867,22.393a2.80576,2.80576,0,0,0-.306,2.58718c.03038.0709-.06914.19748-.12329.33676l-.57485-.40149c-.87233,1.26332-.86864,1.26286-.69365,2.68.05321.431.24111.87613-.23707,1.34L41.983,27.37717l-.23873-.0162c-.13159.40829-.42892.84754-.35967,1.2183a3.13757,3.13757,0,0,1-.45783,1.93543c-.43784-.11112-.9492.23623-1.21843-.42638a12.204,12.204,0,0,1-4.82793,3.3495c-2.00912.78342-4.00516,1.60028-6.012,2.38954-.72938.28687-1.46042.58263-2.21313.79468a20.446,20.446,0,0,0-7.77238,4.26773,14.49855,14.49855,0,0,0-1.92705,2.3638c-1.60863,2.12092-3.39487,4.10882-4.14068,6.79021a29.67327,29.67327,0,0,0-1.28309,6.36945c.56471-1.75065.92886-3.57078,1.60321-5.26766a9.13349,9.13349,0,0,1,3.08895-4.3772,12.50772,12.50772,0,0,1-1.04751,1.63549c-.33827.50258-.6269,1.03857-.93735,1.55986l.12238.053,1.46271-1.73334a1.76776,1.76776,0,0,1-.45562,1.66008,23.46843,23.46843,0,0,0-3.38025,8.85141c-.12394.74965-.47606,1.51633.3272,2.14687.14175.11131.08449.45322.16146.67385a6.29586,6.29586,0,0,0,1.37782,2.80081A4.59719,4.59719,0,0,0,15.821,67.22589a12.41481,12.41481,0,0,0-1.98142-2.79037l-.57971-1.49917c1.28874.82085,1.26044,2.54979,2.75494,2.75464.34465,1.56994.34465,1.56994,1.35287,1.56092l.14394-1.10251a22.04713,22.04713,0,0,0,.96722,2.73176c.39154.7654,1.30989,1.18243,1.69014,2.26531a6.49485,6.49485,0,0,0-1.6298-1.206c-.70311-.20936-.82781-.8822-1.32784-1.22089a5.28955,5.28955,0,0,1-.73026-.743l-.26607,1.0618,4.82111,5.3444.23483-.10318c-.16458-.75917-.37092-1.51229-.4817-2.27922-.105-.72705-.63212-1.45547.04463-2.46419.41526,1.605.8185,2.98831,1.11962,4.39348a4.55858,4.55858,0,0,0,1.08862,2.17982q1.18675,1.31011,2.3521,2.63941a2.0122,2.0122,0,0,1,.23639.50767l-.18251.12488c-.9151-.97219-1.83018-1.9444-2.79737-2.97192-.22671.977.57922,1.2139.89415,1.74328a9.83141,9.83141,0,0,0,3.72643,3.56054l-.316.70651c1.13348.94694,1.541,1.14859,2.32784,1.14181-.6279-.74009-1.2792-1.42479-1.83074-2.18213-.50955-.69972-1.27377-1.2871-1.26293-2.29083a.7195.7195,0,0,1,.47879.30645,25.0937,25.0937,0,0,0,3.8715,4.72733A2.60725,2.60725,0,0,0,32.846,85.293c.11729-.017.25581.13889.38953.20426.6.29337,1.19324.60287,1.80536.86863a1.94423,1.94423,0,0,0,2.096.06177,1.00719,1.00719,0,0,1,.57334-.0727c1.05764.03964,2.11523.085,3.17166.14842a2.06571,2.06571,0,0,1,.52821.18214l-.031.22156-3.21752.10712a2.20959,2.20959,0,0,0,.97917.38445q1.2756.2116,2.55694.38786c.38514.0524.77629.06059,1.16472.08882l-.02589-.01679a4.31467,4.31467,0,0,0,2.426.01907c1.27427-.0911,2.54387-.24762,3.83912-.37886-.12524-.826-.56106-.99943-1.22476-.91255.64438-1.19643-.11363-1.11724-.91919-.98356l.33685-.80461-.95079-1.63753.24189-.177,1.37183,1.403a4.66571,4.66571,0,0,0,.9654-.93682,6.17635,6.17635,0,0,0,.33973-1.5161l.55822.57188,1.03562-.76885c-.89672,1.8741-.96912,2.111-.565,2.22809l.78462-.4754c-.27023.704-.78772,1.25641-.46712,2.03111l-.73007-.31526-.81033.91129.196.23326,1.32788-.84128,1.494-1.16278c-.3233,1.3452-1.7817,1.64921-2.36292,2.715l.16521.21591,4.25708-1.40973c-.98945-1.17245-2.2676-1.984-2.80765-3.61825a2.823,2.823,0,0,1,.50332.25021c.81486.7871,1.65886,1.54817,2.42489,2.38074a4.75758,4.75758,0,0,0,4.11411,1.26966,27.91622,27.91622,0,0,0,11.34729-3.588A2.19292,2.19292,0,0,0,70.938,80.3296c-.0306-.66534-.05515-1.33189-.04751-1.9975a4.38135,4.38135,0,0,1,.20714-.84655,10.42712,10.42712,0,0,1,.444,4.57885,25.944,25.944,0,0,0,3.78917-.86523,7.25757,7.25757,0,0,0,3.33924-1.84484c.84341-.39.84341-.39,1.0621-1.06471-.626.10731-.83142.59651-1.04428,1.07841a.93087.93087,0,0,0-1.2708.213c-.7146.83719-1.68867.65817-2.59742.78812a.80873.80873,0,0,1,.44093-.33385c.96666-.31142,1.58519-.8051,1.232-1.96979-.11127-.36692.05728-.731.59171-.9349.033.67417.06034,1.23409.09084,1.85823.74343-.21867,1.262-.46917,1.22885-1.28609a1.46741,1.46741,0,0,1,.27027-.62709c.018-.03421.12772-.02017.24763-.03485l.1904.87826a1.08753,1.08753,0,0,0,.92064-1.1142,1.25633,1.25633,0,0,1,.57962-1.17124c.05651.79532.10325,1.45381.15093,2.12481,1.47225-1.0964,1.76438-1.95827,1.43956-4.24922-.76085.4252-1.17,1.34715-2.1373,1.44251a4.02735,4.02735,0,0,1,.67922-.73691c.829-.80423,1.88846-1.45383,1.85148-2.83945-.00391-.1458.25977-.29872.43949-.49141l.26021.65111.12415-.02755c.01347-.69733.0269-1.39467.03991-2.06913l-1.0298-.71409c.54339-.0337.81126-.02341,1.06834-.07121a1.508,1.508,0,0,0,1.33949-1.51323c.03874-.43063.038-.86526.08738-1.29437.05893-.51217.15235-1.02038.23083-1.5303l.30289.01007c.09295.77856.18587,1.55712.316,2.64732.3427-.49465.67589-.75443.67656-1.015a20.91823,20.91823,0,0,0-.17735-3.28112c-.18127-1.15756-.56721-2.28174-.81556-3.4309a5.10508,5.10508,0,0,1,.00644-1.13587l.34109-.03185q.65242,2.38479,1.30487,4.76957a3.81957,3.81957,0,0,0,.462-2.60568c-.17834-.88256-.24634-1.78854-.3368-2.68685a2.11837,2.11837,0,0,1,.11386-.59522,4.60661,4.60661,0,0,1,.40158,1.4656c.08121.46072.19454.91581.33189,1.54936a13.84821,13.84821,0,0,0,.46092-5.20739,25.66389,25.66389,0,0,0-3.25666-8.9098A26.70682,26.70682,0,0,0,80.254,39.66748c-.06922-.06319-.20812-.0501-.333-.07649l-.50416,1.16355a3.86123,3.86123,0,0,1-.161-1.25995c-.02181-.28711-.05634-.68947-.243-.82862-1.08013-.80509-2.20718-1.54728-3.31833-2.31076l-.13761.16645,1.14776,1.172-1.75988-.62539-.90167-.8695-.61162.887c-.68681-.33458.26231-1.22222-.68673-1.37265l-.49107,1.01968c-.861-.38646.11637-.9333-.316-1.4278l-.82851-.26041c-.093.34424-.15028.61275-.23959.87013-.086.24781-.2052.48413-.30979.72552a2.33237,2.33237,0,0,1-.09971-1.2295c.07518-.487-.08924-.7582-.64071-.79125l-.68593,1.02159-.18272-.11171.16639-1.178c-.89577.25568-.449,1.18336-1.03449,1.56534-.09426-.12195-.27113-.26012-.24746-.334.27-.84241-.00135-1.869.81823-2.55664.1543.259.23843.61049.4272.68067.83137.30911,1.69295.537,2.54386.79426ZM54.70645,18.64808c.2346-.746,1.12546-.96754,1.19374-1.92986a4.34318,4.34318,0,0,0-1.0074.31027,5.24048,5.24048,0,0,0-.78548.73965l-.21131-.18369.64241-1.09178c-.8526-.32289-1.66077-.62895-2.49388-.94444l1.17671-1.46511-.18707-.15231c-.63556.67886-1.26749,1.36119-1.91317,2.03028-.05466.05664-.20113.02467-.40576.04282l.54192-.95046-.6907-.33457-1.31067,1.49724-.2621-.1948L50.073,14.29866c-1.08928.23924-2.10869-.08027-2.89.97985.3658.86412.72684,1.80915,1.16169,2.7189a24.83111,24.83111,0,0,1,1.4393,2.82227,1.87931,1.87931,0,0,0,1.63344,1.52623,3.20765,3.20765,0,0,0,2.65471-.33461,5.75689,5.75689,0,0,1,3.63437-1.18257c.62193.024,1.24681-.02854,1.81281-.04472a2.01057,2.01057,0,0,0,.52985-1.783,26.554,26.554,0,0,1-.10941-2.91689,1.93808,1.93808,0,0,0-.04906-.5805,8.30041,8.30041,0,0,0-1.9059-3.08537,1.60155,1.60155,0,0,0-2.12924-.3034,20.26924,20.26924,0,0,0-1.589,1.75768l.13491.136,1.14557-.81588.21668.17085-.56238,1.0074c1.0591.32436,1.37959-1.19573,2.5876-.97208l-1.40589,1.26463.09978.13542,1.1558-.4925.11492.16409-.44545.73942.49122.84306c-.92892.91151-1.8124,1.781-2.70348,2.64261C55.06318,18.72714,54.9558,18.68141,54.70645,18.64808ZM60.951,26.94831l-.9865-2.15214c-.91286.32234-.93226.333-.75685.94115a6.18,6.18,0,0,0,.387.97659C59.91234,27.36868,59.993,27.38,60.951,26.94831ZM83.00114,72.7331,82.74609,75.761a6.30293,6.30293,0,0,0,1.47927-4.10434,1.99339,1.99339,0,0,0-.38463.86944C83.73826,72.98794,83.5089,73.0877,83.00114,72.7331ZM15.19929,67.74862Q14.09712,66.026,12.995,64.30342A4.69371,4.69371,0,0,0,15.19929,67.74862Zm34.675,16.88868-.52857-.7957-1.11927.99458.47849.66424ZM84.09139,70.96309c.59821-.685.66171-.94706.59427-2.18993C83.98892,69.157,83.95392,69.27526,84.09139,70.96309Zm-21.41-43.5695-.27343.182.79447,1.60909c.68712-.09255.69113-.09533.31075-.64052C63.24241,28.15606,62.95906,27.7768,62.68135,27.39359ZM55.73213,16.27126c.79956.42327.79956.42327,1.33139-.53671C56.40921,15.4564,56.11023,15.91655,55.73213,16.27126Zm-2.20362-.71716c.92631.36325,1.08254-.16559,1.42224-.56411C54.2511,14.6775,54.07941,15.24116,53.52851,15.5541Zm7.78821,9.81773c.14337.69811.25167,1.24175,1.15593,1.52206C62.09328,26.25905,62.08279,25.64936,61.31672,25.37183ZM85.56016,68.45226l.25451.11713.35115-1.05963-.29448-.08947ZM54.8952,15.85069l.21367.1776.68407-.67366-.159-.17042ZM12.04846,62.19584l-.03614.00921.15354.70822.08328-.02175Z"/><path d="M61.4307,34.3983c.166.16237.39135.29561.48779.49213.41421.84413.81531,1.69657,1.17626,2.56463a46.10814,46.10814,0,0,0,5.14375,9.08961c.82021,1.14839,1.55607,2.357,2.33184,3.53718a3.61809,3.61809,0,0,0,.46812.67469c2.3452,2.21,3.70778,5.02795,5.00872,7.90542.75817,1.67695,1.729,3.25661,2.52652,4.91731a20.44521,20.44521,0,0,1,1.601,3.9091,9.23644,9.23644,0,0,1-.86622,6.944.94741.94741,0,0,1-.50808.4446,15.20479,15.20479,0,0,1-2.28358.40354,3.7202,3.7202,0,0,1-1.59932-.19258,7.88079,7.88079,0,0,1-3.162-2.36966,24.89251,24.89251,0,0,1-4.56113-8.94552c-.41328-1.34867-1.03366-2.63259-1.48416-3.97142-.61286-1.82125-1.1337-3.67327-1.731-5.5A28.35929,28.35929,0,0,1,62.86578,50.135a2.14085,2.14085,0,0,0-.16468-.56546,31.0582,31.0582,0,0,1-1.8649-6.31835c-.41589-1.75319-.98837-3.46884-1.46711-5.20783a6.17551,6.17551,0,0,1-.10717-1.06237l.33253-.08823c.14867.36351.31041.72232.44368,1.0914.46494,1.28776.92109,2.57871,1.37829,3.86926a2.04489,2.04489,0,0,1,.15256,1.06976c-.07475.53385.34286,1.13663.62472,1.92512l.42241-.956c.02327.0857,1.96371,7.23333,1.96371,7.23333l-.0841.0625L63.888,50.14963a3.4944,3.4944,0,0,0,1.01575,2.97114l-.00723-.80688c.52524.77383.52713.8972.03451,1.73687a10.03127,10.03127,0,0,1,2.40648,3.54146l-.602-.2876a2.81094,2.81094,0,0,0,.81685,1.7801c.40651.45085.801.91254,1.20077,1.36946l-.16487.18624-.95514-.60624c.07708.80836.6604,1.22664.962,1.79057.22562.4219.895.67859.45165,1.3788-.07631.12051.31628.57752.53939.83887.34262.40137.72611.76786,1.09222,1.14917l-.168.19406-.74265-.38191c-.02568.0876-.07925.16772-.05831.21445a11.62128,11.62128,0,0,0,.75819,1.58206c.15774.24409.2803.83472.85947.4474.04789-.032.34123.2535.484.42234.40568.47961.76658.99916,1.19237,1.45925.7628.82417,1.587,1.55594,2.89726,1.181-.32283.66414-.64027.83451-1.25261.58179a3.33846,3.33846,0,0,1-1.28454-.80443c-.84738-1.00748-2.06541-1.55823-2.94041-2.51685-.21179-.232-.45788-.43484-.6535-.67888-.29-.36189-.81714-.665-.39792-1.25683-.41324-.76326-.43639-1.75441-1.38124-2.22049.45092,1.57256.73148,3.19991,1.97748,4.44888a20.5657,20.5657,0,0,1,2.74092,3.064,7.13761,7.13761,0,0,0,2.35444,2.16728c.078.04822.10157.18447.22614.42761-1.25032-.22168-1.912-1.19348-2.8532-1.63206,1.32445,2.1513,3.62369,3.19267,5.65165,2.269a1.79749,1.79749,0,0,0,.78488-.65341,6.46128,6.46128,0,0,0,.80454-4.07192c-.32167-3.06642-1.79292-5.63842-3.27043-8.23253a29.52416,29.52416,0,0,1-1.58872-3.27868,21.2496,21.2496,0,0,0-4.43128-6.736,19.47056,19.47056,0,0,1-1.9815-2.90755c-1.19359-1.79665-2.49779-3.53181-3.54546-5.41-1.02744-1.84195-1.80154-3.82614-2.66906-5.75589-.30431-.67692-.56119-1.37554-.82789-2.06878a3.55473,3.55473,0,0,1-.118-.5252Zm6.95311,28.05354c-.18094-.27133-.35813-.54527-.54356-.81351-.48828-.70636-1.26072-1.26094-1.01879-2.32948.05608-.24767-.32447-.59419-.50413-.89524l-.27806.16377C66.73619,59.91635,66.74914,61.61071,68.38381,62.45184Zm-2.979-7.28207-.27975.09818A2.15163,2.15163,0,0,0,66.129,57.00827Zm-2.493-7.42841c-.07875-1.3866-.08823-1.40645-.91021-2.08ZM70.688,69.56892l-.1076.15783.48247.50235.14983-.148Z"/><path d="M57.44137,30.65251a47.93663,47.93663,0,0,1-.14558,11.33139,28.32262,28.32262,0,0,0,.18348,4.68052,66.252,66.252,0,0,0,1.62088,11.28532c.537,2.41375,1.1053,4.82052,1.64586,7.23352.37792,1.687.7987,3.36821,1.08016,5.07187a14.13874,14.13874,0,0,1,.22465,5.83817c-.07657.30489-.14295.61319-.23723.91265a1.53416,1.53416,0,0,1-2.00712,1.28129,3.50167,3.50167,0,0,1-2.85341-2.1728,18.21937,18.21937,0,0,1-1.25582-4.89052c-.18345-1.35238-.64939-2.664-.89968-4.01041-.32982-1.7743-.63786-3.55757-.83737-5.35012A83.20132,83.20132,0,0,1,53.909,49.42106c.09384-2.43156.271-4.85995.36-7.29163.03-.81877-.108-1.64273-.14606-2.46537-.01654-.357.02533-.71674.04068-1.07523l.29972-.01565c.09475.437.21111.87057.28064,1.31154a39.81386,39.81386,0,0,1,.0709,7.63975c-.02461.705-.114,1.40773-.1386,2.11274a2.15993,2.15993,0,0,0,.1355.78679c.20481.56858.44847,1.12317.67639,1.68344l-.21592.13905-.73087-.61813a7.2196,7.2196,0,0,0,.06583,2.16527A6.50215,6.50215,0,0,0,55.87258,55.419a1.28412,1.28412,0,0,1-1.166-.23407,4.16962,4.16962,0,0,0,.26815,3.24065c.35261-.71865.0518-1.35772-.17619-2.16037l.93941.419a17.451,17.451,0,0,0,.11421,5.71845c.151,1.06038.35915,2.1233.49683,3.35883l-.84024-.60595-.11053.05873q.79094,1.26222,1.58187,2.52441l-.14749.13745L55.831,67.09487a1.06819,1.06819,0,0,0,.099,1.18662c.615.88816,1.29657,1.73023,2.01047,2.66743l-.53338.34346q.5223.84629,1.05007,1.70154l-.26978.1885-1.413-1.72946c.326,1.3188,1.26409,2.02841,1.87791,3.11116-.84262-.08952-.94453-.93771-1.62784-1.0615a5.46835,5.46835,0,0,0,1.32944,3.06564,4.42991,4.42991,0,0,0,1.862.89422c.534.15178.83132-.26563.97941-.7862a10.27132,10.27132,0,0,0,.268-3.95794,41.626,41.626,0,0,0-1.00587-4.69975c-.47934-2.14434-.75737-4.333-1.20495-6.48535-.3429-1.64891-.91272-3.25353-1.20785-4.90881-.53636-3.00827-1.286-5.99572-1.17847-9.09068a2.74217,2.74217,0,0,0-.0822-.81815c-.597-2.1481-.2325-4.29217.02149-6.43325a39.79279,39.79279,0,0,0,.18776-6.80853c-.01386-.26118-.20768-.51109-.23071-.77387a6.69359,6.69359,0,0,1-.0027-1.48467C56.783,31.04692,57.1037,30.91949,57.44137,30.65251ZM54.836,58.96958l-.37648.12414.53441,1.16754.21409-.08266Q55.022,59.57409,54.836,58.96958Zm.504,4.9196.19325-.1112-.33791-.72819-.18464.08584Zm-.31878-2.08839.25938-.10787-.34853-.608-.19832.10756Z"/><path d="M41.50867,66.15045c.13015-.72367.26853-1.446.38783-2.17145.09325-.567.1628-1.138.24288-1.70719l.24058-.00732a4.12476,4.12476,0,0,1,.05352.68226c-.17331,2.07473-.3605,4.14829-.53926,6.22257-.027.31287-.00877.63077-.05108.94093-.08549.62672.32787,1.2296-.14584,1.91342-.3665.52909.20459,1.0615.75771,1.52219l-.85216.3913c-.168,1.21548,1.31946,1.67708,1.56825,2.9064-.75116-.16556-.96856-.77262-1.474-1.185l-.67745.14687c-.06175-.47921-.11407-.88507-.16639-1.29091l-.25519.03386a4.58786,4.58786,0,0,0,.32425,1.50917A16.544,16.544,0,0,1,42.093,79.45859c.02674.07372.03806.153.064.22708.69932,1.99794,1.5536,1.7066,3.03945.8004a1.20816,1.20816,0,0,0,.32708-.92261,39.07479,39.07479,0,0,0-1.48767-8.79432,14.08322,14.08322,0,0,1-.08806-7.34435c.34971-1.268.59637-2.56439,1.04851-3.85569a1.74374,1.74374,0,0,1,.11239.55914c-.17062,1.20312-.3456,2.40644-.55956,3.60246a17.69245,17.69245,0,0,0,.55667,7.91105c.13506.49035.205.99873.30255,1.49926a8.82957,8.82957,0,0,0,.27422,1.37657,16.5974,16.5974,0,0,1,.59277,5.70381,1.00313,1.00313,0,0,1-.39416.76016,12.80253,12.80253,0,0,1-2.03331.921,1.57336,1.57336,0,0,1-2.05673-.87874c-.43033-1.762-1.55274-3.263-1.81826-5.07483a12.68326,12.68326,0,0,1-.20516-4.39417,6.04991,6.04991,0,0,0-.04757-1.98544,12.397,12.397,0,0,1-.16322-3.395,3.93426,3.93426,0,0,0-.09893-1.63655,6.15947,6.15947,0,0,1-.04947-2.674c.06187-.50544.132-1.01132.16062-1.51911a10.14954,10.14954,0,0,1,.7203-3.19745c.61959-1.56694,1.08014-3.19629,1.68433-4.76992.828-2.15644,1.74739-4.27764,2.588-6.42941.48551-1.24278.85973-2.52907,1.34567-3.77169.44272-1.13215.97181-2.23041,1.45661-3.34632.30686-.70638.60233-1.41774.90293-2.12688l.23582.03988a3.5438,3.5438,0,0,1-.09534.77957q-.80637,2.2767-1.65363,4.5389c-.92166,2.46087-1.85835,4.91609-2.7847,7.37522-.08215.21807-.13495.44724-.22009.73433l1.00514.56475c-.39732.65338-.87794.16578-1.39285.234l-.68414,1.65634,1.04424.84139c.95738-.93875,1.09777-2.1894,1.88882-3.0593a27.5212,27.5212,0,0,1-1.51774,4.07139l-1.59218-1.13424-.6057,1.2361.97763,1.05157.67884-.87172c.03468.16.09242.26376.06968.345-.61376,2.19452-1.26082,4.38014-1.84043,6.58352-.16358.62187-.06846,1.30934-.21067,1.94a16.59385,16.59385,0,0,1-.66608,1.91048l.63.62465a.586.586,0,0,1-.83393-.01526c-.06273-.053-.19844-.01952-.31891-.027l-.0686,1.09642,1.15067.85228Zm-.89929-7.33437c.534-.5588.83412.23078,1.3292.30119l.2438-1.2575-1.05355-.7759c-.19015.66678-.34405,1.20637-.4958,1.74731-.18438.80567-.30689,1.59155.63285,2.06284.33784-.50344.39832-.91036-.14689-1.30645A2.673,2.673,0,0,1,40.60938,58.81608Zm.82133-2.4.90423.72734c.47663-.98.47663-.98-.60645-1.59279Zm-1.04308,4.79363c-.21984,1.31891-.21984,1.31891.39663,1.71361C41.20128,61.78142,41.20128,61.78142,40.38763,61.20969Zm.77221,8.90938c.1958-1.30383.14-1.4078-.93856-1.74675C40.55043,68.98493,40.80938,69.46685,41.15984,70.11907Zm-1.0312-6.53914.20412,1.47723C40.68985,64.05075,40.68985,64.05075,40.12864,63.57993Zm.72885,8.25384c.23819-.71556.23819-.71556-.3579-1.2098Zm-.0752.81159-.19128.055.14888.68675.252-.07334Z"/><path d="M19.14809,53.9001l-1.051.29568.22725,1.39387a1.18665,1.18665,0,0,0,1.27483-.56683,27.55036,27.55036,0,0,0,1.98833-2.77391A22.78378,22.78378,0,0,1,31.6641,43.16274c1.38041-.65907,2.73593-1.37042,4.118-2.02593a2.95882,2.95882,0,0,1,1.83493-.41844,9.63211,9.63211,0,0,1-.89494.62526c-1.7023.883-3.41243,1.75083-5.1189,2.6258a21.7469,21.7469,0,0,0-9.16533,8.38882A12.344,12.344,0,0,1,19.209,56.21306a9.38066,9.38066,0,0,1-1.221.7009c-.46791.24522-.802.08912-1.10648-.42228l.85563-.54574-.39811-1.83636a5.90638,5.90638,0,0,0-.82783,4.54647c-.16524-.117-.39057-.19789-.486-.35679a3.51449,3.51449,0,0,1-.16469-3.18195,28.00211,28.00211,0,0,1,4.52622-8.20763,25.15858,25.15858,0,0,1,4.74331-4.37027c1.75827-1.24716,3.50135-2.53073,5.35121-3.62979,2.05065-1.21834,4.22488-2.227,6.32516-3.36417,1.06371-.57592,2.08368-1.23272,3.12193-1.85543.22658-.13591.44681-.28241.84816-.53711-.05093.37482-.007.66052-.113.73614a28.91343,28.91343,0,0,1-2.91048,1.95614c-1.48018.80471-3.06363,1.42026-4.5388,2.23307a44.1629,44.1629,0,0,0-3.76694,2.4104c-1.80567,1.249-3.55636,2.57778-5.369,3.81624a1.49408,1.49408,0,0,0-.62143,1.83248c.09428.371.13418.75578.2098,1.19949l-1.40249.16671c.5429-.56142.79649-1.09844.431-1.73521-1.04983.69953-1.199,1.35781-.66112,3.11205L23.35,47.85064l.1439.16634c-.50388.58065-1.01447,1.15564-1.51018,1.7432-.87548,1.03767-1.76356,2.06618-2.59544,3.13806A2.69928,2.69928,0,0,0,19.14809,53.9001Zm-.82758-2.28541.54742-.16651.24464-1.10384.81892,1.08621c.407-.86213.01735-1.61268-.02537-2.59312a7.36238,7.36238,0,0,0-1.56458,2.78942,4.71354,4.71354,0,0,0-.48989.88584c-.118.38353.14028.512.55465.55252Zm2.65316-4.22349c-.72172,1.01319-.41249,1.95793-.37123,2.96117C21.53533,49.59717,21.60544,49.03585,20.97367,47.3912Z"/><path d="M29.86087,59.05712c.34929-.61041.69854-1.22085,1.15029-2.01037a2.1871,2.1871,0,0,1-.32792,1.47552c-1.22826,2.63538-2.48143,5.25913-3.71069,7.89406a13.14019,13.14019,0,0,0-.45226,1.29252c-.56143.29715-.42021-.41218-.75855-.52093-.03444.09915-.11717.21046-.09051.27947.43807,1.13277.89084,2.25986,1.33773,3.38923a.7853.7853,0,0,1,.00215.66525l-.662-.76294.19713,1.63825A4.54841,4.54841,0,0,1,25.683,69.1431l-.41165.84995c-.60036-.16868-.52785-.583-.52756-.9649a26.48128,26.48128,0,0,1,2.401-10.597A32.85281,32.85281,0,0,1,30.732,52.35342c1.61186-2.21957,3.5354-4.21009,5.26312-6.34894,1.70305-2.10839,3.33065-4.27772,4.99041-6.42105.24886-.32137.399-.76294,1.02443-.80276a6.757,6.757,0,0,1-1.37486,2.46648c-1.203,1.60044-2.4781,3.14758-3.74851,4.69617-1.51855,1.851-3.06394,3.68-4.59432,5.52128-.14917.17945-.27461.37866-.39851.55122l.41292,1.20073c.9991-1.28675,1.9269-2.48167,3.011-3.878a2.18721,2.18721,0,0,1-.62172,1.61175c-.78845.808-1.16659,1.91141-2.0044,2.69055-.22138.20589-.22156.64962-.352,1.07854a3.72782,3.72782,0,0,0-.87105.72188,4.637,4.637,0,0,0-.397,1.26915c-.739-.14134-.92431.63326-1.30411,1.17789a.91035.91035,0,0,0,.11392,1.187c-.57395-.031-.7789-.43918-.93153-.904-.08891-.27075-.18436-.53933-.30073-.87843-.54354.75672-.48162.74507-.36079,1.38684a3.89636,3.89636,0,0,1,.10137,2.48513l-.65789-1.91223c-.95024,1.3291.03725,2.34033.14038,3.44983l.2716.03941Zm1.40984-6.36037c-.58931.94279-1.16951,1.89144-1.77139,2.82614a1.19025,1.19025,0,0,0,.0057,1.62876c.53987-.53789.99579-1.08017.69176-1.93932a.48388.48388,0,0,1,.44149-.6795c.09376.16645.18234.32749.27788.48428.0061.01.06615-.01286.08665-.0173C31.82451,54.38,31.51213,53.56444,31.27071,52.69675ZM27.35246,64.347c.07716-.26849.26869-.56611.20921-.79982a20.43136,20.43136,0,0,0-.70151-1.94706C26.43655,62.68684,27.05814,63.46377,27.35246,64.347Zm-.64537.9736-.24358-1.12353-.07413.02094Zm-.65529.73927.15857-.071-.2176-.56746-.21692.099Z"/><path d="M46.96571,33.517c-.28471.61668-.58889,1.22523-.85074,1.85149a49.78937,49.78937,0,0,1-3.67033,7.50072c-1.7376,2.74662-3.16636,5.67812-5.23751,8.23343a33.96909,33.96909,0,0,0-4.43977,7.06346c-.4785,1.03-.95382,2.06163-1.4494,3.08341-.80673,1.66331-.82393,3.50808-1.17509,5.26911-.4053,2.03243-.556,4.11518-.8302,6.17437a7.0152,7.0152,0,0,1-1.576,3.86563,1.34675,1.34675,0,0,1-2.44954-.44393c-.21173-.54761-.49-1.06928-.73205-1.60543-.12777-.283-.33867-.65273.08829-.781.18844-.05664.56094.20041.719.41256a5.00771,5.00771,0,0,1,.49738,1.06225c.06087.144.0754.308.13971.44993.37282.82283.89542.92058,1.35778.17194a6.076,6.076,0,0,0,.862-2.03306c.348-1.92707.52509-3.88459.85469-5.81558.362-2.12088.7573-4.24042,1.26182-6.33068a15.03345,15.03345,0,0,1,1.148-2.69787,57.43686,57.43686,0,0,1,4.72356-7.74233c1.05145-1.56041,2.154-3.08633,3.23342-4.62792a4.40457,4.40457,0,0,0,.26544-.38957c1.36234-2.475,2.73748-4.94322,4.07554-7.43134.78068-1.45162,1.49188-2.94047,2.25507-4.40174a9.72159,9.72159,0,0,1,.67907-.99241Z"/><path d="M77.11639,49.76278c.52046.58363,1.05082,1.15886,1.55662,1.755.20557.24227.61384.41913.34708.94765-.2533-.18884-.488-.36384-.72323-.53817-.02695.01528-.06645.02376-.07687.04594a.14372.14372,0,0,0-.00956.11025Q79.915,55.319,81.62782,58.558c-.51662.25229-.71722-.09821-.89925-.379a14.52855,14.52855,0,0,1-1.52324-2.50664c-.88276-2.28054-2.45433-4.08731-3.85779-6.01745a38.93591,38.93591,0,0,0-3.98007-4.31143,21.84957,21.84957,0,0,1-4.115-4.79145,15.96433,15.96433,0,0,1-.6347-1.57809c.98188-.0654.86366.70372,1.14759,1.06966a13.70162,13.70162,0,0,1,.83043,1.36958c.54055-.45533.862-.21934,1.18392.21536.46448.62721.98505,1.21286,1.48764,1.82347l.57967-.27936c1.32138.39452,1.71054,1.54509,2.32255,2.51354a13.16,13.16,0,0,0,1.03746,1.25828l-.68666.2297c.61344,1.34051,2.543,1.15767,3.18849,2.65743-.30736-.02379-.45667-.03535-.606-.04737a1.45069,1.45069,0,0,0-1.21175-.8687C75.89432,49.85722,76.71183,49.49187,77.11639,49.76278Z"/><path d="M84.58349,51.56822c.95688.14082.93246-.73181,1.43544-1.10541a1.28841,1.28841,0,0,1-.35633,1.61959,1.86125,1.86125,0,0,1-1.28164.30877,1.75624,1.75624,0,0,1-1.32946-1.06192c-.60662-1.10091-1.17059-2.22642-1.80658-3.30983A31.52728,31.52728,0,0,0,74.59715,40.12,26.998,26.998,0,0,0,72.339,38.61916a11.02338,11.02338,0,0,1-.994-.87844c.34584-.54505.61038-.27862.87-.12324A23.02076,23.02076,0,0,1,77.45865,41.784c.27785.30363.45281.88626,1.10923.59477.0862-.0383.36953.24749.49033.43026.32425.49051.603,1.01085.91342,1.51086.19178.30888.27188.68125.85011.60295.23372-.03164.5477.52964.82995.82612l.17033-.63528a1.47038,1.47038,0,0,1,1.34268.57734,8.81635,8.81635,0,0,1,1.94308,2.788l-.207.16148q-1.18928-1.46813-2.37851-2.93626l-.20385.08169.045,1.6708L83.078,47.339c.30152.90445-.21385,2.01641.73175,2.76531l.00528-1.87169c.81273.39994.72276,1.01711.755,1.55552C84.60465,50.36562,84.58137,50.94661,84.58349,51.56822Z"/><path d="M45.70266,57.05424a1.97892,1.97892,0,0,1-.15848-2.024c.62416-2.10262,1.32505-4.1825,1.99961-6.27009.14477-.44791.34543-.882.44713-1.3388a37.57128,37.57128,0,0,1,1.94277-5.16008c.698-1.82743,1.24517-3.71388,1.81607-5.58738a10.74908,10.74908,0,0,0,.15225-1.39819c.03042-.18817.17746-.35748.50144-.49736.01424.284.05007.56879.03918.85182a14.77666,14.77666,0,0,1-1.09487,4.79337c-.5678,1.461-1.17806,2.90546-1.76845,4.35768-.14744.36271-.3137.71986-.43162,1.09215q-1.56269,4.93395-3.107,9.87374C45.90655,56.17608,45.8143,56.61818,45.70266,57.05424Z"/><path d="M67.75156,72.0387c.31542-.035.5651.05613.53063.41773a5.148,5.148,0,0,1-.26377.87865c.2913-.06316.57411-.07013.58917-.13721a1.84675,1.84675,0,0,0,.04137-.85953c-.20431-.73523-.47388-1.45233-.71765-2.17658q.05135-.06565.10325-.13093a12.57482,12.57482,0,0,1,1.2139,3.80257l-.67913.32013.45354.615a1.6141,1.6141,0,0,0,.29334,2.03487c-1.27408,1.06256-2.0906,2.50274-3.38264,3.46974l-.21953-.19586q.725-.87782,1.45017-1.75546c.37527-.45334.74492-.91163,1.13012-1.35638a.82986.82986,0,0,0,.01748-1.20345c-1.25217.8617-1.8657,2.35906-3.27886,3.06318l2.33911-3.05509-.11321-.11008-.96338.70178c.18472-1.21666,1.75231-1.536,1.42631-3.03191-.60159.83912-1.0693,1.49153-1.537,2.144l-.15973-.05918a2.27925,2.27925,0,0,1,.11871-.54981c.3248-.65942.67411-1.30677,1.01438-1.95855Z"/><path d="M53.831,24.5596c-.70189,2.38532-1.62211,4.70078-2.43355,7.05066-.05058.14647-.24354.2438-.37026.364l-.21952-.10555c.26049-.82277.52762-1.64354.77973-2.46886.27478-.89959.494-1.81857.81494-2.7009.28958-.79615.68377-1.55426,1.0318-2.32916Z"/><path d="M82.62276,56.073a4.223,4.223,0,0,1,1.32063,2.80383,8.53947,8.53947,0,0,1,.2769,3.31825l-.33837.04245a2.87928,2.87928,0,0,1-.23657-.56015c-.27643-1.42457-.518-2.85615-.81421-4.27647a6.63059,6.63059,0,0,0-.47415-1.15679Z"/><path d="M54.98519,23.44055l3.667,7.77006C57.55882,30.24131,54.70281,24.364,54.98519,23.44055Z"/><path d="M67.93129,70.16176l-.54941-.65975c-.75548,1.52181-1.48314,2.98757-2.21081,4.45332l-.24747-.10977c.61607-1.97072,1.84613-3.71816,2.218-5.77434.46382.116.46382.116.89293,1.95966Q67.98268,70.09607,67.93129,70.16176Z"/><path d="M45.89322,23.94143c.42866-1.31531.84834-2.63373,1.30023-3.941.04371-.12648.28674-.18406.43725-.27362.08265.18669.27952.4147.22933.55333-.31907.88147-.67714,1.75006-1.055,2.60855-.17869.406-.42951.78015-.64765,1.16873Z"/><path d="M32.08942,84.15657a39.73272,39.73272,0,0,1,5.269,1.29386C36.41676,85.83827,33.22178,85.05174,32.08942,84.15657Z"/><path d="M49.86935,25.64064a11.12787,11.12787,0,0,1-2.48378,3.83095A19.73023,19.73023,0,0,1,49.44538,25.653C49.50132,25.585,49.70909,25.642,49.86935,25.64064Z"/><path d="M42.86229,87.87532l-.144-.42782a8.55145,8.55145,0,0,1,4.4953.01431c-1.602.14514-2.98963.27087-4.37724.39667Z"/><path d="M70.00755,79.78969a6.61024,6.61024,0,0,1-2.54675,3.11289,3.13578,3.13578,0,0,1,.23637-.516c.575-.82993,1.15068-1.66019,1.76053-2.46423C69.54593,79.80606,69.81965,79.83043,70.00755,79.78969Z"/><path d="M86.553,56.707c.24955-1.42381,1.24066-2.69117.68236-4.2752.57821-.08869.73441.2355.729.58221A6.55812,6.55812,0,0,1,86.553,56.707Z"/><path d="M28.64024,41.53966a6.25721,6.25721,0,0,1-2.94208,2.67217A7.19429,7.19429,0,0,1,28.64024,41.53966Z"/><path d="M67.75156,72.0387l-.59345.86765-.94832.96894c-.23447-.54159.21864-.78634.39163-1.11262.20084-.37868.43729-.73847.72112-1.21111Z"/><path d="M50.23048,29.72213l-1.28256,1.627a2.3409,2.3409,0,0,1,.5766-1.78109c.0859-.11323.375-.07224.57084-.10207Z"/><path d="M31.15769,40.26129l-1.53445,1.28452C29.80192,40.59538,29.95961,40.465,31.15769,40.26129Z"/><path d="M44.86027,47.90315c.47128-.348.72548-.097.97829.29182C45.25282,48.46894,45.25282,48.46894,44.86027,47.90315Z"/><path d="M54.92677,53.26325l1.00612.87427c-.75626.26844-.99679-.15133-1.228-.584Z"/><path d="M65.6276,31.19259l.87284,1.48031-.23794.12552q-.34718-.766-.69459-1.53173Z"/><path d="M13.81393,61.54927c.595.35171.41692.7616.34508,1.20107C13.72721,62.2531,13.72721,62.2531,13.81393,61.54927Z"/><path d="M51.34937,80.07175l.50767.93771C51.215,80.9086,51.099,80.69507,51.34937,80.07175Z"/><path d="M67.5864,80.40116l.5548-.61738.14227.11188-.4816.65395Z"/><path d="M58.57373,16.96273a19.17952,19.17952,0,0,1-2.87991,2.37866A4.701,4.701,0,0,1,58.57373,16.96273Z"/><path d="M57.29915,19.35114c.528-.62643.94887-1.36077,1.991-1.53571A3.21793,3.21793,0,0,1,57.29915,19.35114Z"/><path d="M51.71206,19.90842l1.54807-.05748c-.52888.8954-1.05566.39891-1.52076.41221Z"/></svg>